<svg width="25" height="24" viewBox="0 0 25 24" fill="none" xmlns="http://www.w3.org/2000/svg">
<g clip-path="url(#clip0_877_39)">
<path d="M12.1108 24.0017C18.7383 24.0017 24.1108 18.6291 24.1108 12.0017C24.1108 5.37429 18.7383 0.00170898 12.1108 0.00170898C5.48342 0.00170898 0.11084 5.37429 0.11084 12.0017C0.11084 18.6291 5.48342 24.0017 12.1108 24.0017Z" fill="#1977F3"/>
<path d="M16.7821 15.4713L17.3136 12.0017H13.9858V9.75057C13.9858 8.80218 14.4499 7.87573 15.9417 7.87573H17.4554V4.92255C17.4554 4.92255 16.0817 4.68799 14.7688 4.68799C12.0283 4.68799 10.2361 6.34851 10.2361 9.35737V12.0017H7.18848V15.4713H10.2361V23.8566C10.847 23.9528 11.4731 24.0017 12.111 24.0017C12.7489 24.0017 13.3749 23.9511 13.9858 23.8566V15.4713H16.7821Z" fill="white"/>
</g>
<defs>
<clipPath id="clip0_877_39">
<rect width="24" height="24" fill="white" transform="translate(0.11084)"/>
</clipPath>
</defs>
</svg>
