<svg width="25" height="24" viewBox="0 0 25 24" fill="none" xmlns="http://www.w3.org/2000/svg">
<rect x="0.222168" width="24" height="24" rx="12" fill="white"/>
<path d="M22.7822 12.25C22.7822 11.47 22.7122 10.72 22.5822 10H12.2222V14.26H18.1422C17.8822 15.63 17.1022 16.79 15.9322 17.57V20.34H19.5022C21.5822 18.42 22.7822 15.6 22.7822 12.25Z" fill="#4285F4"/>
<path d="M12.2223 23.0001C15.1923 23.0001 17.6823 22.0201 19.5023 20.3401L15.9323 17.5701C14.9523 18.2301 13.7023 18.6301 12.2223 18.6301C9.36234 18.6301 6.93234 16.7001 6.06234 14.1001H2.40234V16.9401C4.21234 20.5301 7.92234 23.0001 12.2223 23.0001Z" fill="#34A853"/>
<path d="M6.06217 14.0901C5.84217 13.4301 5.71217 12.7301 5.71217 12.0001C5.71217 11.2701 5.84217 10.5701 6.06217 9.91007V7.07007H2.40217C1.65217 8.55007 1.22217 10.2201 1.22217 12.0001C1.22217 13.7801 1.65217 15.4501 2.40217 16.9301L5.25217 14.7101L6.06217 14.0901Z" fill="#FBBC05"/>
<path d="M12.2223 5.38C13.8423 5.38 15.2823 5.94 16.4323 7.02L19.5823 3.87C17.6723 2.09 15.1923 1 12.2223 1C7.92234 1 4.21234 3.47 2.40234 7.07L6.06234 9.91C6.93234 7.31 9.36234 5.38 12.2223 5.38Z" fill="#EA4335"/>
</svg>
