<svg width="65" height="65" viewBox="0 0 65 65" fill="none" xmlns="http://www.w3.org/2000/svg">
<path d="M61.3627 64.5666L50.9127 54.1166C49.4349 55.1722 47.8384 56.0826 46.1231 56.8479C44.4079 57.6132 42.6266 58.2069 40.7794 58.6291V53.7208C41.9933 53.3514 43.1676 52.9423 44.3023 52.4937C45.437 52.0451 46.5058 51.4514 47.5086 50.7125L34.4461 37.5708V56.3333L18.6127 40.5H5.94606V21.5H18.2961L0.879395 4.08331L4.28356 0.679138L64.7669 61.0833L61.3627 64.5666ZM58.5127 46.2L55.1086 42.7958C56.1641 41.0014 56.9426 39.1014 57.444 37.0958C57.9454 35.0903 58.1961 33.0319 58.1961 30.9208C58.1961 25.4847 56.6127 20.6159 53.4461 16.3146C50.2794 12.0132 46.0572 9.28192 40.7794 8.12081V3.21247C47.3238 4.69025 52.6544 8.00206 56.7711 13.1479C60.8877 18.2937 62.9461 24.218 62.9461 30.9208C62.9461 33.6125 62.5766 36.2514 61.8377 38.8375C61.0988 41.4236 59.9905 43.8777 58.5127 46.2ZM47.9044 35.5916L40.7794 28.4666V18.175C43.2599 19.3361 45.1995 21.0778 46.5981 23.4C47.9968 25.7222 48.6961 28.2555 48.6961 31C48.6961 31.7916 48.6301 32.5701 48.4981 33.3354C48.3662 34.1007 48.1683 34.8527 47.9044 35.5916ZM34.4461 22.1333L26.2127 13.9L34.4461 5.66664V22.1333ZM29.6961 44.775V32.9L23.0461 26.25H10.6961V35.75H20.6711L29.6961 44.775Z" fill="#C8C8C8"/>
</svg>
