<svg width="32" height="64" viewBox="0 0 32 64" fill="none" xmlns="http://www.w3.org/2000/svg">
<path d="M3.33317 63.6666C2.43595 63.6666 1.68386 63.3632 1.07692 62.7562C0.469976 62.1493 0.166504 61.3972 0.166504 60.5V9.83331C0.166504 8.93609 0.469976 8.18401 1.07692 7.57706C1.68386 6.97012 2.43595 6.66665 3.33317 6.66665H9.6665V0.333313H22.3332V6.66665H28.6665C29.5637 6.66665 30.3158 6.97012 30.9228 7.57706C31.5297 8.18401 31.8332 8.93609 31.8332 9.83331V60.5C31.8332 61.3972 31.5297 62.1493 30.9228 62.7562C30.3158 63.3632 29.5637 63.6666 28.6665 63.6666H3.33317ZM15.9998 50.6041C16.7387 50.6041 17.3853 50.3271 17.9394 49.7729C18.4936 49.2187 18.7707 48.5722 18.7707 47.8333C18.7707 47.0944 18.4936 46.4479 17.9394 45.8937C17.3853 45.3396 16.7387 45.0625 15.9998 45.0625C15.2609 45.0625 14.6144 45.3396 14.0603 45.8937C13.5061 46.4479 13.229 47.0944 13.229 47.8333C13.229 48.5722 13.5061 49.2187 14.0603 49.7729C14.6144 50.3271 15.2609 50.6041 15.9998 50.6041ZM13.6248 39.6H18.3748V19.65H13.6248V39.6Z" fill="#C8C8C8"/>
</svg>
