<svg width="68" height="68" viewBox="0 0 68 68" fill="none" xmlns="http://www.w3.org/2000/svg">
<path d="M67.6664 57.7792L62.9164 53.1084V16.1375H49.0623L43.2831 9.25002H28.7164L24.2831 14.475L20.9581 11.15L26.4998 4.50002H45.4998L51.2789 11.3875H62.9164C64.1303 11.3875 65.2255 11.8757 66.2019 12.8521C67.1782 13.8285 67.6664 14.9236 67.6664 16.1375V57.7792ZM49.1414 39.3334L33.1498 23.3417C35.4192 22.9722 37.6491 23.0646 39.8394 23.6188C42.0296 24.1729 43.9428 25.2681 45.5789 26.9042C47.215 28.5403 48.3234 30.4535 48.9039 32.6438C49.4845 34.834 49.5637 37.0639 49.1414 39.3334ZM14.3873 11.3875L19.1373 16.1375H9.08311V56.75H52.9414L0.0581055 3.86669L3.46227 0.462524L67.3498 64.35L63.9456 67.7542L57.6914 61.5H9.08311C7.81644 61.5 6.70811 61.025 5.75811 60.075C4.80811 59.125 4.33311 58.0167 4.33311 56.75V16.1375C4.33311 14.8709 4.80811 13.7625 5.75811 12.8125C6.70811 11.8625 7.81644 11.3875 9.08311 11.3875H14.3873ZM26.6581 26.9834L30.0623 30.3875C29.1651 31.232 28.4921 32.1688 28.0435 33.1979C27.5949 34.2271 27.3706 35.3486 27.3706 36.5625C27.3706 38.9375 28.2151 40.9695 29.9039 42.6584C31.5928 44.3472 33.6248 45.1917 35.9998 45.1917C37.1609 45.1917 38.2692 44.9542 39.3248 44.4792C40.3803 44.0042 41.3303 43.3445 42.1748 42.5L45.5789 45.9042C44.3123 47.2236 42.8477 48.2264 41.1852 48.9125C39.5227 49.5986 37.7942 49.9417 35.9998 49.9417C32.3053 49.9417 29.1519 48.6354 26.5394 46.0229C23.9269 43.4104 22.6206 40.257 22.6206 36.5625C22.6206 34.7681 22.9637 33.0396 23.6498 31.3771C24.3359 29.7146 25.3387 28.25 26.6581 26.9834Z" fill="#C8C8C8"/>
</svg>
