<svg width="40" height="32" viewBox="0 0 40 32" fill="none" xmlns="http://www.w3.org/2000/svg">
<path d="M40.001 3.00046V29.0005C40.001 29.8005 39.701 30.5005 39.101 31.1005C38.501 31.7005 37.801 32.0005 37.001 32.0005H3.00098C2.20098 32.0005 1.50098 31.7005 0.900977 31.1005C0.300977 30.5005 0.000976562 29.8005 0.000976562 29.0005V3.00046C0.000976562 2.20046 0.300977 1.50046 0.900977 0.900457C1.50098 0.300457 2.20098 0.000457764 3.00098 0.000457764H37.001C37.801 0.000457764 38.501 0.300457 39.101 0.900457C39.701 1.50046 40.001 2.20046 40.001 3.00046ZM3.00098 8.45046H37.001V3.00046H3.00098V8.45046ZM3.00098 14.9005V29.0005H37.001V14.9005H3.00098ZM3.00098 29.0005V3.00046V29.0005Z" fill="#FF2626"/>
</svg>
