<svg width="15" height="15" viewBox="0 0 15 15" fill="none" xmlns="http://www.w3.org/2000/svg">
<path d="M4.55625 11.9062L7.5 10.1437L10.4438 11.925L9.65625 8.5875L12.2438 6.3375L8.83125 6.0375L7.5 2.8875L6.16875 6.01875L2.75625 6.31875L5.34375 8.56875L4.55625 11.9062ZM2.86875 14.25L4.0875 8.98125L0 5.4375L5.4 4.96875L7.5 0L9.6 4.96875L15 5.4375L10.9125 8.98125L12.1312 14.25L7.5 11.4562L2.86875 14.25Z" fill="#FFA100"/>
<path d="M4.55625 11.9062L7.5 10.1437L10.4438 11.925L9.65625 8.5875L12.2438 6.3375L8.83125 6.0375L7.5 2.8875L6.16875 6.01875L2.75625 6.31875L5.34375 8.56875L4.55625 11.9062Z" fill="#FFA100"/>
</svg>
