<svg width="51" height="59" viewBox="0 0 51 59" fill="none" xmlns="http://www.w3.org/2000/svg">
<path d="M25.2542 48.9571C26.0986 48.9571 26.7451 48.8235 27.1937 48.5564C27.6424 48.2892 27.8667 47.8885 27.8667 47.3543C27.8667 46.82 27.6424 46.4072 27.1937 46.1158C26.7451 45.8244 26.0722 45.6787 25.175 45.6787C22.9583 45.6787 20.7021 45.0352 18.4063 43.7481C16.1104 42.461 14.6458 40.1904 14.0125 36.9364C13.9069 36.4992 13.6694 36.1471 13.3 35.88C12.9306 35.6129 12.5347 35.4793 12.1125 35.4793C11.5319 35.4793 11.0833 35.6857 10.7667 36.0985C10.45 36.5114 10.3444 36.9363 10.45 37.3735C11.2417 41.4532 13.1153 44.4038 16.0708 46.2251C19.0264 48.0464 22.0875 48.9571 25.2542 48.9571V48.9571ZM25.3333 58.2822C18.1028 58.2822 12.0729 55.9995 7.24375 51.434C2.41458 46.8686 0 41.1861 0 34.3865C0 29.5297 2.09792 24.2478 6.29375 18.541C10.4896 12.8342 16.8361 6.65389 25.3333 0C33.8306 6.65389 40.1771 12.8342 44.3729 18.541C48.5688 24.2478 50.6667 29.5297 50.6667 34.3865C50.6667 41.1861 48.2521 46.8686 43.4229 51.434C38.5937 55.9995 32.5639 58.2822 25.3333 58.2822ZM25.3333 53.911C31.2444 53.911 36.1528 52.0533 40.0583 48.3378C43.9639 44.6223 45.9167 39.9719 45.9167 34.3865C45.9167 30.5496 44.1618 26.1906 40.6521 21.3094C37.1424 16.4283 32.0361 11.2679 25.3333 5.82822C18.6306 11.2679 13.5243 16.4283 10.0146 21.3094C6.50486 26.1906 4.75 30.5496 4.75 34.3865C4.75 39.9719 6.70278 44.6223 10.6083 48.3378C14.5139 52.0533 19.4222 53.911 25.3333 53.911Z" fill="#C8C8C8"/>
</svg>
