<svg width="72" height="61" viewBox="0 0 72 61" fill="none" xmlns="http://www.w3.org/2000/svg">
<path d="M29.6058 44.6589C30.994 46.0942 33.0009 46.765 35.6265 46.6714C38.2521 46.5778 40.1685 45.5637 41.3757 43.6292L60.9318 11.8958L30.6017 32.3961C28.7909 33.6442 27.8252 35.6412 27.7045 38.3871C27.5838 41.1329 28.2175 43.2235 29.6058 44.6589ZM36.034 0.28833C39.4744 0.28833 43.0657 0.865584 46.8079 2.02009C50.5501 3.1746 54.1415 5.15598 57.5819 7.96424L52.8739 11.4278C50.1578 9.55559 47.2455 8.16706 44.1371 7.26218C41.0286 6.35729 38.3276 5.90485 36.034 5.90485C27.5838 5.90485 20.371 9.02514 14.3955 15.2657C8.41999 21.5063 5.43225 29.0886 5.43225 38.0126C5.43225 40.8209 5.80949 43.6604 6.56397 46.531C7.31845 49.4017 8.38981 52.0539 9.77806 54.4878H62.1993C63.5272 52.2412 64.5835 49.6201 65.3681 46.6246C66.1528 43.6292 66.5451 40.6961 66.5451 37.8254C66.5451 35.2044 66.1679 32.3805 65.4134 29.3538C64.6589 26.3271 63.3159 23.5345 61.3845 20.9759L64.9154 16.1082C67.2091 19.6029 68.9293 23.1132 70.0761 26.6392C71.2229 30.1651 71.8566 33.7066 71.9774 37.2638C72.0981 41.0081 71.7359 44.534 70.8909 47.8415C70.0459 51.1491 68.8085 54.2069 67.1789 57.0152C66.4546 58.4505 65.685 59.3242 64.8702 59.6362C64.0553 59.9483 63.0443 60.1043 61.8372 60.1043H10.1402C9.11412 60.1043 8.10311 59.8391 7.1072 59.3086C6.11129 58.7782 5.3719 58.0137 4.88903 57.0152C3.31971 54.0197 2.11254 50.9774 1.26753 47.8883C0.422508 44.7993 0 41.5074 0 38.0126C0 32.833 0.950644 27.9497 2.85193 23.3629C4.75322 18.776 7.33354 14.7821 10.5929 11.381C13.8522 7.97984 17.6699 5.28079 22.0459 3.28381C26.4219 1.28682 31.0846 0.28833 36.034 0.28833Z" fill="#C8C8C8"/>
</svg>
