<svg width="372" height="107" viewBox="0 0 372 107" fill="none" xmlns="http://www.w3.org/2000/svg">
<path d="M4.25 107C3.15 107 2.25 106.65 1.55 105.95C0.85 105.25 0.5 104.35 0.5 103.25V5.75C0.5 4.64999 0.85 3.74999 1.55 3.05C2.25 2.34999 3.15 1.99999 4.25 1.99999H24.05C25.05 1.99999 25.9 2.34999 26.6 3.05C27.4 3.74999 27.8 4.64999 27.8 5.75V84.35H73.1C74.2 84.35 75.1 84.75 75.8 85.55C76.6 86.25 77 87.15 77 88.25V103.25C77 104.35 76.6 105.25 75.8 105.95C75.1 106.65 74.2 107 73.1 107H4.25ZM103.797 107C102.297 107 101.197 106.65 100.497 105.95C99.7973 105.15 99.1973 104.25 98.6973 103.25L70.3473 33.65C70.1473 33.25 70.0473 32.8 70.0473 32.3C70.0473 31.4 70.3473 30.65 70.9473 30.05C71.6473 29.35 72.4973 29 73.4973 29H90.4473C91.7473 29 92.7473 29.35 93.4473 30.05C94.1473 30.75 94.5973 31.45 94.7973 32.15L111.747 78.2L128.847 32.15C129.047 31.45 129.497 30.75 130.197 30.05C130.897 29.35 131.897 29 133.197 29H150.147C151.047 29 151.847 29.35 152.547 30.05C153.247 30.65 153.597 31.4 153.597 32.3C153.597 32.8 153.497 33.25 153.297 33.65L124.947 103.25C124.547 104.25 123.947 105.15 123.147 105.95C122.447 106.65 121.297 107 119.697 107H103.797ZM169.006 107C167.906 107 167.006 106.65 166.306 105.95C165.606 105.25 165.256 104.35 165.256 103.25V4.24999C165.256 3.14999 165.606 2.25 166.306 1.55C167.006 0.849996 167.906 0.499994 169.006 0.499994H186.706C187.806 0.499994 188.706 0.849996 189.406 1.55C190.106 2.25 190.456 3.14999 190.456 4.24999V103.25C190.456 104.35 190.106 105.25 189.406 105.95C188.706 106.65 187.806 107 186.706 107H169.006ZM211.176 107C210.076 107 209.176 106.65 208.476 105.95C207.776 105.25 207.426 104.35 207.426 103.25V84.2C207.426 83.2 207.776 82.35 208.476 81.65C209.176 80.85 210.076 80.45 211.176 80.45H230.076C231.176 80.45 232.076 80.85 232.776 81.65C233.576 82.35 233.976 83.2 233.976 84.2V103.25C233.976 104.35 233.576 105.25 232.776 105.95C232.076 106.65 231.176 107 230.076 107H211.176ZM273.689 107C272.689 107 271.789 106.65 270.989 105.95C270.289 105.25 269.939 104.35 269.939 103.25V31.85L249.389 47.6C248.489 48.3 247.539 48.55 246.539 48.35C245.639 48.15 244.839 47.6 244.139 46.7L235.289 35.15C234.689 34.25 234.439 33.3 234.539 32.3C234.739 31.2 235.339 30.35 236.339 29.75L270.839 3.05C271.439 2.65 271.989 2.4 272.489 2.3C273.089 2.09999 273.739 1.99999 274.439 1.99999H293.189C294.189 1.99999 295.039 2.34999 295.739 3.05C296.539 3.74999 296.939 4.64999 296.939 5.75V103.25C296.939 104.35 296.539 105.25 295.739 105.95C295.039 106.65 294.189 107 293.189 107H273.689ZM348.249 107C347.249 107 346.349 106.65 345.549 105.95C344.849 105.25 344.499 104.35 344.499 103.25V31.85L323.949 47.6C323.049 48.3 322.099 48.55 321.099 48.35C320.199 48.15 319.399 47.6 318.699 46.7L309.849 35.15C309.249 34.25 308.999 33.3 309.099 32.3C309.299 31.2 309.899 30.35 310.899 29.75L345.399 3.05C345.999 2.65 346.549 2.4 347.049 2.3C347.649 2.09999 348.299 1.99999 348.999 1.99999H367.749C368.749 1.99999 369.599 2.34999 370.299 3.05C371.099 3.74999 371.499 4.64999 371.499 5.75V103.25C371.499 104.35 371.099 105.25 370.299 105.95C369.599 106.65 368.749 107 367.749 107H348.249Z" fill="#910000"/>
</svg>
