<svg width="67" height="67" viewBox="0 0 67 67" fill="none" xmlns="http://www.w3.org/2000/svg">
<path d="M52.3084 42.4208L48.9043 39.0167C50.0126 37.6445 50.8307 36.1007 51.3584 34.3854C51.8862 32.6702 52.1501 30.9153 52.1501 29.1208H56.9001C56.9001 31.5486 56.5043 33.8972 55.7126 36.1667C54.9209 38.4361 53.7862 40.5208 52.3084 42.4208ZM42.1751 32.2875L37.9793 28.1708V9.32918C37.9793 8.43196 37.6626 7.66668 37.0293 7.03335C36.3959 6.40001 35.6307 6.08335 34.7334 6.08335C33.8362 6.08335 33.0709 6.40001 32.4376 7.03335C31.8043 7.66668 31.4876 8.43196 31.4876 9.32918V21.6L26.7376 16.85V9.32918C26.7376 7.11251 27.5161 5.22571 29.073 3.66876C30.63 2.11182 32.5168 1.33335 34.7334 1.33335C36.9501 1.33335 38.8369 2.11182 40.3938 3.66876C41.9508 5.22571 42.7293 7.11251 42.7293 9.32918V29.1208C42.7293 29.5431 42.6897 30.0708 42.6105 30.7042C42.5313 31.3375 42.3862 31.8653 42.1751 32.2875ZM32.3584 61.5V50.7333C26.764 50.1528 22.0668 47.8042 18.2668 43.6875C14.4668 39.5708 12.5668 34.7153 12.5668 29.1208H17.3168C17.3168 33.9236 19.0188 37.9611 22.423 41.2333C25.8272 44.5056 29.9307 46.1417 34.7334 46.1417C36.739 46.1417 38.6654 45.8118 40.5126 45.1521C42.3598 44.4924 44.0487 43.582 45.5793 42.4208L48.9834 45.825C47.3473 47.1972 45.5265 48.2924 43.5209 49.1104C41.5154 49.9285 39.3779 50.4695 37.1084 50.7333V61.5H32.3584ZM63.7876 66.6459L0.850098 3.70835L3.85843 0.700012L66.7959 63.6375L63.7876 66.6459Z" fill="#C8C8C8"/>
</svg>
