<svg width="36" height="48" viewBox="0 0 36 48" fill="none" xmlns="http://www.w3.org/2000/svg">
<path d="M33.9088 48.0005C34.4633 48.0005 34.9218 47.8192 35.2843 47.4567C35.6469 47.0941 35.8281 46.6356 35.8281 46.0812C35.8281 45.5267 35.6469 45.0682 35.2843 44.7057C34.9218 44.3431 34.4633 44.1619 33.9088 44.1619H22.521V37.5083H23.4806C26.9354 37.5083 29.857 36.314 32.2454 33.9256C34.6339 31.5371 35.8281 28.6155 35.8281 25.1608C35.8281 22.559 35.1137 20.2026 33.6849 18.0913C32.2561 15.9801 30.2621 14.4766 27.7031 13.581C27.5325 11.9602 26.7754 10.5954 25.4319 9.48646C24.0884 8.37753 22.5636 7.88704 20.8576 8.015L21.5613 6.03172C21.7746 5.51991 21.7639 5.02942 21.5293 4.56025C21.2947 4.09109 20.9215 3.77121 20.4097 3.6006L19.578 3.28072L19.642 3.02481C19.8126 2.4277 19.802 1.85191 19.61 1.29744C19.4181 0.742976 19.0236 0.359115 18.4265 0.145859C17.8293 -0.0673965 17.2642 -0.0460706 16.7311 0.209836C16.1979 0.465743 15.7821 0.892255 15.4835 1.48937L15.3556 1.74528L14.5879 1.48937C14.076 1.27612 13.5962 1.28678 13.1484 1.52136C12.7005 1.75594 12.37 2.10781 12.1567 2.57698L6.27088 17.8674C6.05762 18.3792 6.06828 18.8697 6.30286 19.3389C6.53745 19.808 6.91064 20.1493 7.42246 20.3625L8.31813 20.6824L8.19018 20.9383C7.93427 21.4501 7.92361 21.9833 8.15819 22.5377C8.39277 23.0922 8.78729 23.476 9.34176 23.6893C9.93888 23.9026 10.504 23.8919 11.0371 23.6573C11.5703 23.4227 11.9861 23.0069 12.2847 22.4098L12.4126 22.1539L13.3723 22.4737C13.8841 22.687 14.3746 22.6763 14.8438 22.4417C15.3129 22.2072 15.6328 21.8553 15.8034 21.3861L16.7631 18.8271C17.4028 19.5521 18.1599 20.0746 19.0342 20.3945C19.9086 20.7144 20.8362 20.853 21.8172 20.8103C22.8408 20.7677 23.8538 20.4265 24.8561 19.7867C25.8584 19.147 26.6155 18.3366 27.1273 17.3556C28.748 18.0807 29.9636 19.1576 30.774 20.5864C31.5843 22.0152 31.9895 23.54 31.9895 25.1608C31.9895 27.5492 31.1685 29.5645 29.5264 31.2066C27.8843 32.8486 25.8691 33.6697 23.4806 33.6697H3.19999C2.64553 33.6697 2.18703 33.8509 1.82449 34.2135C1.46196 34.576 1.28069 35.0345 1.28069 35.589C1.28069 36.1434 1.46196 36.6019 1.82449 36.9645C2.18703 37.327 2.64553 37.5083 3.19999 37.5083H16.1233V44.1619H1.92046C1.36599 44.1619 0.90749 44.3431 0.544956 44.7057C0.182423 45.0682 0.00115585 45.5267 0.00115585 46.0812C0.00115585 46.6356 0.182423 47.0941 0.544956 47.4567C0.90749 47.8192 1.36599 48.0005 1.92046 48.0005H33.9088ZM13.0524 19.083L9.66164 17.8674L14.7798 4.68821L18.1705 5.90377L13.0524 19.083ZM21.3694 17.6115C20.4737 17.6115 19.7167 17.3023 19.0982 16.6838C18.4798 16.0654 18.1705 15.3083 18.1705 14.4127C18.1705 13.517 18.4798 12.7599 19.0982 12.1415C19.7167 11.5231 20.4737 11.2138 21.3694 11.2138C22.2651 11.2138 23.0221 11.5231 23.6406 12.1415C24.259 12.7599 24.5682 13.517 24.5682 14.4127C24.5682 15.3083 24.259 16.0654 23.6406 16.6838C23.0221 17.3023 22.2651 17.6115 21.3694 17.6115Z" fill="#FF2626"/>
</svg>
