<svg width="40" height="40" viewBox="0 0 40 40" fill="none" xmlns="http://www.w3.org/2000/svg">
<path d="M26.301 28.5505C26.601 28.8505 26.951 29.0005 27.351 29.0005C27.751 29.0005 28.1176 28.8338 28.451 28.5005C28.7843 28.1671 28.9593 27.7838 28.976 27.3505C28.9926 26.9171 28.8343 26.5505 28.501 26.2505L21.651 19.4005V10.8005C21.651 10.4005 21.5093 10.0588 21.226 9.77546C20.9426 9.49212 20.5843 9.35046 20.151 9.35046C19.7176 9.35046 19.3593 9.49212 19.076 9.77546C18.7926 10.0588 18.651 10.4171 18.651 10.8505V20.0005C18.651 20.2005 18.6843 20.3838 18.751 20.5505C18.8176 20.7171 18.9176 20.8838 19.051 21.0505L26.301 28.5505ZM20.001 40.0005C17.2676 40.0005 14.6843 39.4755 12.251 38.4255C9.81764 37.3755 7.69264 35.9421 5.87598 34.1255C4.05931 32.3088 2.62598 30.1838 1.57598 27.7505C0.525976 25.3171 0.000976562 22.7338 0.000976562 20.0005C0.000976562 17.2671 0.525976 14.6838 1.57598 12.2505C2.62598 9.81712 4.05931 7.69212 5.87598 5.87546C7.69264 4.05879 9.81764 2.62546 12.251 1.57546C14.6843 0.525458 17.2676 0.000457764 20.001 0.000457764C22.7343 0.000457764 25.3176 0.525458 27.751 1.57546C30.1843 2.62546 32.3093 4.05879 34.126 5.87546C35.9426 7.69212 37.376 9.81712 38.426 12.2505C39.476 14.6838 40.001 17.2671 40.001 20.0005C40.001 22.7338 39.476 25.3171 38.426 27.7505C37.376 30.1838 35.9426 32.3088 34.126 34.1255C32.3093 35.9421 30.1843 37.3755 27.751 38.4255C25.3176 39.4755 22.7343 40.0005 20.001 40.0005ZM20.001 37.0005C24.6676 37.0005 28.6676 35.3338 32.001 32.0005C35.3343 28.6671 37.001 24.6671 37.001 20.0005C37.001 15.3338 35.3343 11.3338 32.001 8.00046C28.6676 4.66712 24.6676 3.00046 20.001 3.00046C15.3343 3.00046 11.3343 4.66712 8.00098 8.00046C4.66764 11.3338 3.00098 15.3338 3.00098 20.0005C3.00098 24.6671 4.66764 28.6671 8.00098 32.0005C11.3343 35.3338 15.3343 37.0005 20.001 37.0005Z" fill="#FF2626"/>
</svg>
