<svg width="45" height="65" viewBox="0 0 45 65" fill="none" xmlns="http://www.w3.org/2000/svg">
<path d="M24.7792 50.9969V47.3543H33.25V39.9962H37.2083V50.9969H24.7792ZM7.125 24.8428V13.1135H19.7917V16.7561H11.0833V24.8428H7.125ZM4.75 64.1104C3.48333 64.1104 2.375 63.6733 1.425 62.7991C0.474999 61.9248 0 60.9049 0 59.7393V4.37117C0 3.20552 0.474999 2.18558 1.425 1.31135C2.375 0.437117 3.48333 0 4.75 0H39.5833C40.85 0 41.9583 0.437117 42.9083 1.31135C43.8583 2.18558 44.3333 3.20552 44.3333 4.37117V59.7393C44.3333 60.9049 43.8583 61.9248 42.9083 62.7991C41.9583 63.6733 40.85 64.1104 39.5833 64.1104H4.75ZM4.75 57.5537V59.7393H39.5833V57.5537H4.75ZM4.75 53.1825H39.5833V10.9279H4.75V53.1825ZM4.75 6.55675H39.5833V4.37117H4.75V6.55675ZM4.75 6.55675V4.37117V6.55675ZM4.75 57.5537V59.7393V57.5537Z" fill="#C8C8C8"/>
</svg>
